PathFileType	4	(X/Y/Z)	c:/Users/goper/Files/vsCode/490R/osim_files/A04/A04_Slow_02.trc
DataRate	CameraRate	NumFrames	NumMarkers	Units                	OrigDataRate	OrigDataStartFrame	OrigNumFrames
120.00	120.00	6	36	mm	120.0	1608	2143
                Frame#	Time	LPSIS			LASIS			LTH1			LTH2			LTH3			LTH4			LLFE			LMFE			LSH1			LSH2			LSH3			LSH4			LLMAL			LMMAL			LCAL			LMTP5			LTOE			LMTP1			RPSIS			RASIS			RTH1			RTH2			RTH3			RTH4			RLFE			RMFE			RSH1			RSH2			RSH3			RSH4			RLMAL			RMMAL			RCAL			RMTP1			RTOE			RMTP5		
		X1	Y1	Z1	X2	Y2	Z2	X3	Y3	Z3	X4	Y4	Z4	X5	Y5	Z5	X6	Y6	Z6	X7	Y7	Z7	X8	Y8	Z8	X9	Y9	Z9	X10	Y10	Z10	X11	Y11	Z11	X12	Y12	Z12	X13	Y13	Z13	X14	Y14	Z14	X15	Y15	Z15	X16	Y16	Z16	X17	Y17	Z17	X18	Y18	Z18	X19	Y19	Z19	X20	Y20	Z20	X21	Y21	Z21	X22	Y22	Z22	X23	Y23	Z23	X24	Y24	Z24	X25	Y25	Z25	X26	Y26	Z26	X27	Y27	Z27	X28	Y28	Z28	X29	Y29	Z29	X30	Y30	Z30	X31	Y31	Z31	X32	Y32	Z32	X33	Y33	Z33	X34	Y34	Z34	X35	Y35	Z35	X36	Y36	Z36

1608	13.39167	-2793.23560	1034.84082	412.07434	-3023.11768	998.27905	478.41376	-2996.93506	681.32037	504.94754	-3011.88770	639.72906	502.73495	-3055.13184	698.87256	502.61386	-3062.96704	655.74487	501.11273	-3061.94751	525.88306	493.01614	-3081.11450	536.95813	354.71890	-3050.58984	418.38998	487.86084	-3066.60156	378.44418	483.60400	-3109.41284	433.97717	479.53421	-3117.17554	391.85440	475.42264	-3109.98242	108.64635	423.73972	-3135.38501	116.54282	342.06781	-3054.39673	65.72394	364.34592	-3253.26074	69.19463	465.56946	-3303.22217	89.34367	407.21625	-3289.68921	74.02940	362.25665	-2784.52002	1020.63007	306.40524	0.00000	0.00000	0.00000	-2824.59839	711.60907	173.39331	-2820.24438	669.54590	172.33577	-2886.41724	700.07959	158.97348	-2871.18335	654.78796	162.34908	-2840.79370	516.10883	185.24699	-2859.49390	511.15900	303.60858	-2667.89160	374.73322	207.90184	-2645.65674	333.83890	217.53365	-2715.52441	337.93161	197.29060	-2685.23633	302.40628	205.20616	-2549.22778	163.94432	221.14162	-2591.48828	155.79556	348.84164	-2470.45288	150.78300	306.21060	-2670.89917	54.50741	322.18900	-2693.14380	68.63271	270.70575	-2646.02588	54.12126	200.63612
1609	13.40000	-2799.62354	1036.16077	412.55664	-3030.83032	999.66034	480.04892	-3003.65161	681.91156	506.66312	-3018.10718	640.07953	504.28638	-3061.96216	698.89954	504.93219	-3070.06763	655.28131	503.29965	-3067.99609	525.86285	494.44208	-3085.71558	537.27209	356.44342	-3055.56934	418.90802	489.13834	-3071.01880	378.80045	484.82849	-3114.44067	433.72998	480.89383	-3121.70728	391.58444	476.59460	-3110.58789	108.62284	423.86124	-3136.09302	116.46231	342.21094	-3054.76880	66.08101	364.40674	-3254.40527	68.11095	466.32916	-3303.01465	88.36216	407.05191	-3288.75513	72.57864	361.67551	-2792.86743	1021.21838	307.16821	0.00000	0.00000	0.00000	-2839.37207	708.76617	172.15166	-2838.07861	666.22711	171.53366	-2899.21582	698.58972	157.58501	0.00000	0.00000	0.00000	-2859.37573	513.67163	183.72107	-2877.47974	508.48743	302.53238	-2682.09277	377.07980	206.93797	-2657.98633	337.38727	216.74303	-2728.27979	338.64392	196.24350	-2696.26221	304.38660	204.21973	-2555.96558	170.83490	221.03358	-2598.00903	161.75757	348.43851	-2477.32617	160.77174	306.70218	-2673.74731	55.83026	321.97046	-2696.21167	68.54173	270.06479	-2647.68530	55.44480	200.48444
1610	13.40833	-2808.85278	1036.80481	413.49835	-3038.72778	1001.12964	481.80359	-3009.91724	682.32202	507.82101	-3024.11719	640.41858	505.48792	-3068.51929	698.87482	506.81665	-3076.27490	655.12195	505.03406	-3073.97949	526.48053	496.03207	-3093.54126	538.08813	357.83304	-3060.12134	419.39676	490.24997	-3075.06689	379.06284	485.76144	-3120.58301	434.21729	482.33072	-3125.95557	391.34131	477.56079	-3110.96362	108.59119	423.87500	-3136.48755	116.28308	342.05002	-3054.98560	66.26631	364.44330	-3254.74878	67.83958	465.99603	-3303.42627	87.63632	406.80411	-3290.63306	72.44033	362.02124	-2800.92358	1021.88068	307.83780	0.00000	0.00000	0.00000	-2854.26685	705.97705	170.94725	-2852.62817	663.98053	170.07129	-2914.53809	697.47272	157.07704	-2906.20703	651.25116	161.86784	-2878.49268	511.48102	182.46310	-2896.21289	506.07376	300.63913	-2696.96704	379.73813	206.12192	-2671.42627	340.95673	216.11098	-2742.02417	339.63718	195.34573	-2708.57104	306.60913	203.42029	-2563.38257	178.16266	220.28526	-2605.83154	167.74460	348.64410	-2484.51782	171.64041	307.10794	-2676.58447	57.50634	321.66205	-2699.15576	68.42397	269.40530	-2649.74097	57.41434	200.40652
1611	13.41667	-2816.93896	1037.56812	414.25998	-3046.39209	1002.44476	483.54883	-3016.47632	683.20087	509.31387	-3030.02148	640.99298	506.62756	-3074.92017	698.90668	508.36975	-3082.28955	655.10889	506.51562	-3079.02319	526.02924	497.50357	-3098.79102	538.39410	358.93793	-3064.38428	419.93112	491.11044	-3078.79785	379.37000	486.55884	-3125.12939	434.13745	483.25424	-3129.81104	391.10818	478.32941	-3111.51953	108.39754	425.11108	-3136.82666	116.23440	342.15665	-3054.30371	66.83340	364.50348	-3254.81812	67.42925	465.39462	-3303.84326	87.20514	406.86612	-3290.85986	72.02943	362.09247	-2808.13159	1022.58820	308.52396	0.00000	0.00000	0.00000	-2871.35059	702.79150	169.93686	-2869.64111	661.11597	169.08473	-2930.42383	696.34918	157.22914	-2921.40820	649.86584	161.39700	-2898.05420	509.54642	181.33859	-2916.67236	504.05469	298.50888	-2712.51123	382.49057	205.58981	-2685.69189	344.79504	215.70667	-2756.05933	340.83932	194.61618	-2721.38818	309.07819	202.73952	-2571.00903	186.83344	219.95734	-2613.95630	174.27681	348.54834	-2492.98511	182.97871	307.18222	-2680.08545	59.70999	321.14047	-2703.31714	69.04271	268.63751	-2652.61816	60.05667	200.35344
1612	13.42500	-2823.28320	1038.67261	414.71683	-3054.22363	1003.87714	485.30292	-3022.34351	683.85986	510.22665	-3035.70703	641.56116	507.50467	-3081.23364	699.16394	509.66412	-3088.27612	655.23267	507.74832	-3084.13281	526.38702	498.49756	-3103.93286	538.78076	359.88876	-3068.30103	420.31381	491.92239	-3082.57178	379.50168	487.52267	-3129.13208	433.95868	484.01343	-3133.45117	390.89322	479.01550	-3111.83325	108.43961	425.12494	-3137.11963	116.19221	342.08447	-3054.56860	66.99973	364.52884	-3255.07764	67.20286	465.26965	-3305.65674	86.80624	408.12915	-3291.11133	71.36731	361.97391	-2816.66260	1023.13000	309.40674	0.00000	0.00000	0.00000	-2886.90479	699.94171	168.85123	-2886.01074	658.37042	168.17058	-2946.32300	695.37640	157.47989	-2940.60254	648.46649	161.96460	-2918.16333	508.07465	180.38046	-2937.66431	501.92438	296.84573	-2728.51001	385.47272	205.17798	-2700.30542	349.09076	215.22525	-2771.98438	341.06708	195.21556	-2734.17041	312.19168	202.20508	0.00000	0.00000	0.00000	-2622.34473	181.09091	348.63522	-2502.61792	194.55089	306.81546	-2683.55957	61.84531	320.50040	-2707.79785	69.38371	268.28610	-2656.17114	63.37520	200.40532
1613	13.43333	-2830.97144	1039.60059	415.40448	-3061.87476	1005.12677	486.92847	-3028.45264	684.65771	511.21054	-3041.44946	642.31653	508.47089	-3087.24194	699.47565	510.64114	-3094.07031	655.57672	508.76544	-3089.01733	527.14587	498.70401	-3108.66504	539.17688	360.72015	-3072.07788	420.78882	492.62283	-3085.70801	380.00629	487.87729	-3132.89722	433.79974	484.63580	-3136.85913	390.75494	479.54498	-3112.08203	108.46379	425.17346	-3137.31348	116.08965	342.00723	-3055.60229	66.67520	364.64090	-3255.35986	66.95530	465.69104	-3304.31787	85.75255	407.31781	-3291.24194	70.96675	361.82977	-2823.50610	1023.96979	310.10815	0.00000	0.00000	0.00000	-2902.50854	697.35510	167.97731	-2903.74487	655.57880	167.59058	-2961.98755	694.60059	157.62816	-2957.74902	647.47668	161.98595	-2938.49902	506.94489	179.52850	-2958.90942	499.97580	295.75037	-2744.77881	388.31613	204.69055	-2715.29883	352.64819	214.91573	-2786.26538	342.75812	194.60904	-2747.93799	314.88669	201.73376	0.00000	0.00000	0.00000	-2631.50269	187.75143	348.32074	-2512.96533	206.22858	306.64630	-2687.38501	64.10610	319.83249	-2712.89722	69.94193	268.07812	-2660.74292	67.16489	200.55127
